<svg id="Ebene_1" data-name="Ebene 1" xmlns="http://www.w3.org/2000/svg" viewBox="0 0 419.53 99.21"><defs><style>.cls-1{fill:#e42b2c;}</style></defs><title>AEW-HORIZONTAL</title><path class="cls-1" d="M35,70.27a9.67,9.67,0,0,1-5.43-9.16L18,70.36h-.41c-4-3.74-6-7.38-6-10.86,0-5.26,2.8-10.35,8.39-15.36l-4.07-10.6,1.11.08a11.2,11.2,0,0,0,8.73-3.3l12,4,2.38-1.87.18.34a22.23,22.23,0,0,0-2.89,6.53V61.53a3.61,3.61,0,0,0,2.38,2.63l1.53-.76.94.76ZM29.57,38.89l-12.3-4.58L20.83,44l8.74,4.24V38.89Zm.09,10.86-8.82-4.42a17.26,17.26,0,0,0-2.45,8.32c0,3.81,1.61,7.38,4.92,10.68l6.36-5.43V49.75Z"/><path class="cls-1" d="M69.31,70.52c-3.56-2.45-5.34-5.43-5.34-9L51.84,70.18a11.07,11.07,0,0,1-5.34-9.84V37.94L45,36.5,43,37.7l-.85-.94,8.15-6.27,6.46,5-2.57,2V60.09c0,1.61,1,3,3,4.08l6.88-4.92V37.94l-2-2.54,6-5,6.28,5-2.46,2.12V61.7c0,.94.85,1.79,2.55,2.72l1.52-1,.85.85Z"/><path class="cls-1" d="M92.8,71.08a50.79,50.79,0,0,0-12.23-6.45,8.21,8.21,0,0,0,2.13-6.11V36.71H78.38l.76-4.33h3.73V23.74a35.55,35.55,0,0,0,9.25-6.28l8.15,1.95-1.71,5.85-7.29-1.53v8.65h6.36L97,36.71H91.27V61l6.1,3.9,2.9-2.37.93,1Z"/><path class="cls-1" d="M113.47,53v8.82L120.6,65l5.6-3.57.93,1c-1.44.93-3,2-4.66,3.14l-7.39,5.19a39.71,39.71,0,0,0-11.71-4.24,8.55,8.55,0,0,0,2.38-6.19V37.65A73.26,73.26,0,0,0,117.2,31l10.94,11C122,46.22,117.12,49.87,113.47,53Zm-.09-16.53V51.05l8.06-6.36Z"/><path class="cls-1" d="M161.94,71.08c-4.33-2.13-7.63-3.23-9.92-3.23-2.63,0-5.18,1.1-7.8,3.23a43.51,43.51,0,0,0-14.85-6.7c1.62-1.45,2.38-3.65,2.38-6.53V38.08c-2.46-3-3.73-5.61-3.73-7.89q0-5.48,8.4-9.93l.42.68c-2.29,2-3.39,3.9-3.39,5.6,0,.6,1,2.38,3.05,5.26s3.14,5.43,3.14,7.8L151.09,31c3.39,2.63,5.26,5.51,5.52,8.82l11.53-8.91c3.82,3.3,5.77,6.36,5.77,9.16V64.53A31,31,0,0,0,161.94,71.08ZM148.79,41.9A3.28,3.28,0,0,0,148.2,40a23.61,23.61,0,0,0-2.46-2.89l-6.28,5V61.24a95,95,0,0,0,9.33,3.57Zm17.9,0a4.63,4.63,0,0,0-1.62-3.14,20.81,20.81,0,0,0-1.61-1.7l-6.79,5V61.84c1.87.68,3.9,1.35,6.2,1.95.76.16,2,.51,3.81,1Z"/><path class="cls-1" d="M185.22,71c-3.82-2-5.6-4.93-5.35-8.57L180,60.9V38.76l-2.46-2.63L183.77,31l6.54,5.43-2.12,2.39V62.26A4.06,4.06,0,0,0,190.57,65l1.53-1,.84.76Z"/><path class="cls-1" d="M221.59,40V60.3c0,2,1,4.41,3,7.46s3.06,4.93,3.06,5.85V74c-.26,2-2.21,3.81-5.86,5.6-5.47,2.67-1.53.76-4.58,2.2A42,42,0,0,0,206.4,80a31.52,31.52,0,0,0-10,1.78l-1.79-1.52,9.17-10.44-7.9-5.6V36.38A34.35,34.35,0,0,0,202.58,34L208.85,31l13,5.94,6.38-4V41Zm-4.76,29.6a17.21,17.21,0,0,1-3.05-8.06L201.64,74.9a38.78,38.78,0,0,1,7.22-.52,44.9,44.9,0,0,1,13.49,2.29l.17-1A44.43,44.43,0,0,1,216.83,69.55ZM214,39.69l-10.69-3V60.73l5.43,3.65L214,59Z"/><path class="cls-1" d="M374.06,46.31c2-1.46,4.1-3,6.47-4.65L369.41,30.55a73.18,73.18,0,0,1-11.63,6.8v23a8.74,8.74,0,0,1-2.42,6.3A39.72,39.72,0,0,1,367.25,71l7.5-5.26c1.72-1.21,3.28-2.24,4.75-3.19l-.95-1-5.69,3.61-7.24-3.18V53Zm-1-2.45-7.56,5.73V36.15Z"/><path class="cls-1" d="M271.27,30.55l-11.72,9c-.26-3.36-2.15-6.29-5.6-9l-4.63,3.46v0L247,35.83l-4.67,3.5c0-2.42-1-5.08-3.19-7.93s-3.1-4.73-3.1-5.34c0-1.72,1.11-3.63,3.44-5.69l-.43-.69q-8.53,4.53-8.53,10.08c0,2.33,1.29,5,3.79,8V57.85c0,2.93-.78,5.17-2.41,6.63A44.58,44.58,0,0,1,247,71.29c2.67-2.15,5.25-3.27,7.93-3.27,2.32,0,5.68,1.12,10.08,3.27a31.27,31.27,0,0,1,12.15-6.64V39.83C277.13,37,275.15,33.92,271.27,30.55ZM251.62,64.94a91.23,91.23,0,0,1-9.48-3.63V42.93l7-5.51a19.32,19.32,0,0,1,1.9,2.26,3.36,3.36,0,0,1,.61,2V64.94Zm18.18,0c-1.81-.52-3.1-.87-3.88-1-2.32-.59-4.39-1.29-6.29-2V43L267,37.21c.47.48,1,1,1.2,1.28a4.72,4.72,0,0,1,1.64,3.18Z"/><path class="cls-1" d="M293.19,65.1a4.19,4.19,0,0,1-2.42-2.75V38.48l2.15-2.42-6.63-5.51L279.9,35.8l2.5,2.68V61l-.08,1.55c-.26,3.71,1.55,6.64,5.43,8.7l7.85-6.37-.86-.78Z"/><path class="cls-1" d="M330.17,65.1a6.74,6.74,0,0,1-2.42-2.75V39.68a52.64,52.64,0,0,1,3.8-5.42l-.87-.95L327,36.24l-6-5.51c-1.2,1.13-2.71,2.42-4.46,3.85l-6.57,5q0-5.78-5.42-9L297.51,37l.86.94,1.38-.94a5,5,0,0,1,2.07,4V63.13l-2.41,2.68L306,71.33l6.21-5.51-2.32-2.93V43.09l6.86-5.42,3.13,2.71V61c0,5.18,1.12,7.68,5.26,10.35L332.85,65l-.86-.86Z"/><path class="cls-1" d="M345.71,28.63l-8.28,7.44V58.3a8.72,8.72,0,0,1-2.32,6.21A37.76,37.76,0,0,1,346,71.06l7.75-6.72-.94-1.21L350.37,65l-4.57-3.79V36.16h8.79V31.77H345.8Z"/><path class="cls-1" d="M397.07,36.58l5.18,5.09,5.68-4.91-5.6-6.12-8.71,6.64a7.54,7.54,0,0,0-1.72-4.14,13.49,13.49,0,0,0-3.71-2.58L380.87,37l.94.94,1.46-.94a5,5,0,0,1,2.07,4V58.31q0,4.27-2.32,6.21a36.79,36.79,0,0,1,11,6.55l7.85-6.72-1-1-2.5,1.8L393.7,61.5V39.18Z"/></svg>