<svg id="auf-ewig-winter-logo" xmlns="http://www.w3.org/2000/svg" viewBox="0 0 1970.02 1862.66">
  <g id="Ebene_2" data-name="Ebene 2">
    <g id="Ebene_1-2" data-name="Ebene 1">
    <path class="cls-1"
      d="M725.84,585.56c-39.83-21.31-59.3-54.66-59.3-100.07l-126,101H536c-43.61-40.78-65.78-80.61-65.78-118.6,0-57.44,30.55-113,91.65-167.7L517.4,184.37l12.07.95c34.25,2.75,66.69-9.28,95.43-36.14l131.49,43.53,26-20.37,1.89,3.7a242.51,242.51,0,0,0-31.53,71.33V490.13c4.67,15.73,13.95,25,25.95,28.7l16.67-8.33,10.18,8.33Zm-59.3-342.8-134.35-50,38.92,105.61,95.43,46.32Zm.91,118.59-96.34-48.2c-17.57,31.49-26.85,62.09-26.85,90.79,0,41.72,17.57,80.61,53.71,116.74l69.48-59.29Z" />
    <path class="cls-1"
      d="M1132.76,588.31c-38.93-26.85-58.32-59.29-58.32-98.18L941.9,584.62c-38.85-25-58.32-61.15-58.32-107.47V232.54l-16.67-15.73-21.35,13-9.28-10.22,89-68.54,70.46,54.66-27.84,22.25V474.36c0,17.62,11.16,32.44,33.34,44.47l75.06-53.71V232.54L1054,204.78l65.78-54.69,68.58,54.69-26.86,23.16V492c0,10.18,9.28,19.46,27.76,29.65L1206,510.5l9.2,9.28Z" />
    <path class="cls-1"
      d="M1405.4,585.56c-34.33-25.95-78.76-49.11-133.46-70.42,15.77-15.77,23.16-38,23.16-66.73V210.32h-47.22l8.37-47.26H1297V68.57c31.53-13.91,64.88-36.13,101-68.57l89,21.31-18.56,63.94-79.67-16.68v94.49h69.48l-6.48,47.26h-63v265l66.69,42.62L1487,492l10.18,11.12Z" />
    <path class="cls-1"
      d="M389.46,1024.34v96.34L467.23,1155,528.41,1116l10.19,11.12c-15.77,10.19-32.44,21.32-50.92,34.29L407,1218c-40.73-22.22-83.36-38-127.87-46.32,17.66-18.52,25.95-40.78,25.95-67.64V856.64c42.63-19.46,84.35-44.47,125.08-73.21L549.69,903C482.09,950.22,429.29,990.05,389.46,1024.34Zm-.91-180.68V1003l88-69.52Z" />
    <path class="cls-1"
      d="M951.1,1221.65c-47.3-23.16-83.44-35.19-108.41-35.19-28.74,0-56.5,12-85.24,35.19-42.63-31.49-96.34-55.56-162.12-73.17,17.58-15.77,25.87-39.84,25.87-71.33V861.28c-26.85-32.44-40.73-61.18-40.73-86.19q0-59.74,91.73-108.41l4.6,7.43c-25,22.22-37,42.63-37,61.15,0,6.49,11.09,26,33.35,57.44,23.16,30.56,34.32,59.3,34.32,85.25l125.08-93.58c37,28.7,57.41,60.2,60.2,96.33l126-97.27c41.72,36.13,63,69.48,63,100.07v266.82C1034.46,1163.3,990.93,1187.4,951.1,1221.65ZM807.46,903A36.25,36.25,0,0,0,801,881.65c-.91-2.79-10.19-13-26.86-31.5l-68.57,54.66v209.38c26,12,60.2,25,101.91,38.93Zm195.47,0c0-10.19-5.51-22.26-17.58-34.29-3.7-4.64-9.28-10.18-17.58-18.52l-74.15,54.66v215.87c20.36,7.43,42.62,14.82,67.67,21.31q12.44,2.77,41.64,11.13Z" />
    <path class="cls-1"
      d="M1205.26,1220.75c-41.72-22.26-61.19-53.75-58.39-93.59l.9-16.67V868.67L1120.91,840l68.58-56.54,71.36,59.29-23.16,25.95v256.65c2.8,12,11.09,22.21,26,29.64l16.67-11.12,9.2,8.33Z" />
    <path class="cls-1"
      d="M1618.59,881.65V1104c0,21.32,11.09,48.17,32.36,81.52q33.39,48.66,33.42,63.93v3.74q-4.18,31.9-64,61.14s-16.67,8.34-50,24.06c-47.22-13-86.15-19.46-117.68-19.46-34.25,0-70.39,6.49-109.31,19.46l-19.47-16.67,100.11-114-86.23-61.14V842.72c22.26-4.6,46.32-13.88,73.25-25.91,5.51-2.79,28.67-13.92,68.5-33.38L1621.3,848.3l69.56-43.56v88ZM1566.69,1205c-18.56-26.86-29.65-55.6-33.35-88l-132.55,146.39c18.56-3.73,44.51-5.58,78.76-5.58q68.13,0,147.34,25l1.88-11.12C1598.14,1243,1577.78,1220.75,1566.69,1205Zm-30.56-326.12-116.78-33.35v263.13l59.3,39.84,57.48-58.39Z" />
    <path class="cls-1"
      d="M1583.88,1589.63c21.71-16,44.79-32.72,70.67-50.79l-121.44-121.4c-41.42,29.12-83.77,54.57-127.07,74.34V1743.1c0,27.28-8.47,49.89-26.37,68.75,45.18,8.43,88.49,24.45,129.91,47.06l81.9-57.49c18.81-13.18,35.75-24.45,51.77-34.79l-10.35-11.27-62.16,39.47-79-34.79v-97.68Zm-10.59-26.78-82.52,62.59V1478.6Z" />
    <path class="cls-1"
      d="M445.23,1417.44l-128,98.79c-2.8-36.71-23.53-68.67-61.16-97.87l-50.54,37.79-.1-.19L180,1475.21,129,1513.39c0-26.36-11.3-55.49-34.83-86.6-22.61-32-33.88-51.74-33.88-58.33,0-18.85,12.23-39.55,37.63-62.16l-4.71-7.51Q0,1348.23,0,1408.93c0,25.44,14.1,54.57,41.39,87.53v219.35c0,32-8.47,56.49-26.33,72.43,66.83,17.93,121.4,42.38,164.71,74.42,29.2-23.53,57.41-35.79,86.61-35.79,25.4,0,62.12,12.26,110.13,35.79,40.47-34.87,84.7-59.32,132.71-72.5V1519.07C509.22,1488,487.57,1454.15,445.23,1417.44ZM230.58,1793c-42.34-14.1-77.18-27.28-103.5-39.55V1552.67l76.2-60.12c12,13.35,19.95,22.3,20.75,24.6a36.94,36.94,0,0,1,6.55,21.69Zm198.63,0q-29.67-8.51-42.35-11.34c-25.41-6.52-48-14.1-68.71-21.61V1553.27l80-63.11c5.18,5.23,10.39,10.38,13.15,13.88,12.26,12.19,17.9,24.45,17.9,34.8Z" />
    <path class="cls-1"
      d="M684.59,1794.83c-15.07-7.51-23.53-17.86-26.37-30.12V1504l23.53-26.36-72.47-60.24-69.67,57.4L566.9,1504v245.65l-.92,16.94c-2.84,40.46,16.94,72.5,59.28,95l85.65-69.6-9.39-8.51Z" />
    <path class="cls-1"
      d="M1088.46,1794.83c-12.22-8.43-21.65-18.78-26.36-30.12V1517.15a600.3,600.3,0,0,1,41.42-59.25l-9.39-10.34-40.5,32-64.92-60.24c-13.19,12.28-29.6,26.4-48.82,42l-71.74,54.41q-.28-63-59.25-98.22L731.72,1488l9.43,10.34L756.21,1488c15.06,12.18,22.57,27.28,22.57,43.3v241.89l-26.36,29.2L824,1862.66l67.79-60.24-25.44-32V1554.26l75-59.16,34.22,29.64v225c0,56.48,12.22,83.77,57.4,113l84.73-69.67-9.42-9.43Z" />
    <path class="cls-1"
      d="M1258.15,1396.47l-90.36,81.21v242.81q0,40.92-25.41,67.75c35.75,12.26,75.3,36.71,118.61,71.59l84.69-73.43-10.35-13.18L1309,1793.91l-49.9-41.39V1478.6h96v-48h-96Z" />
    <path class="cls-1"
      d="M1851.41,1483.27l56.49,55.57,62.12-53.65-61.16-66.83-95.08,72.5c-2.83-19.77-9.42-34.87-18.81-45.22-7.55-8.43-20.74-17.86-40.51-28.2l-80,70.59,10.35,10.34,16-10.34c15.06,12.18,22.61,27.28,22.61,43.3v189.16q0,46.66-25.41,67.75c44.23,17,84.69,40.54,120.49,71.59l85.65-73.43-11.31-11.27-27.28,19.7-50.86-39.47v-243.8Z" />
    </g>
  </g>
</svg>