<svg xmlns="http://www.w3.org/2000/svg" viewBox="0 0 2016.46 227.04"><title>Element 12</title><g id="Ebene_2" data-name="Ebene 2"><g id="Ebene_1-2" data-name="Ebene 1"><polygon points="770.84 0 562.63 0 386.66 227.04 582.78 227.04 667.4 82.36 750.69 227.04 946.8 227.04 770.84 0"/><polygon points="1207.82 0 1057.31 0 1009.89 65.44 964 0 812.21 0 900.07 113.52 812.21 227.04 962.72 227.04 1010.15 161.6 1056.04 227.04 1207.82 227.04 1119.97 113.52 1207.82 0"/><polygon points="1453.84 0 1245.63 0 1069.66 227.04 1265.78 227.04 1350.4 82.36 1433.69 227.04 1629.8 227.04 1453.84 0"/><path d="M1531.53,0h185.38l99.4,91.13V0h200.15V227H1816.31l-104.78-94.89V227h-180Z"/><path d="M484.93,227h-180V148.26l-104.8,48.56,0,30.22H0V0H200.14V90.24L299.6,43.5,299.55,0H484.93Z"/></g></g></svg>