<svg xmlns="http://www.w3.org/2000/svg" viewBox="0 0 1450.28 1577.62"><title>Element 4</title><g id="Ebene_2" data-name="Ebene 2"><g id="Ebene_1-2" data-name="Ebene 1"><path d="M1441.77,140.52a1.75,1.75,0,0,0-2-.86h0a1.74,1.74,0,0,0-1.06.87,25.14,25.14,0,0,0-1.67,5.35,2.51,2.51,0,0,0,0,.27c-1.29,21.12-16,39.91-35.52,45.83-13.24,4-33.86,6.83-46.07-2.71-2.58-1.8-6-6.07-10.33-13.1a1.76,1.76,0,0,0-3.06.1c-3.82,7.34-6.28,11.78-10.16,19.34a2,2,0,0,1-.19.31c-14.91,19-34.83,36.7-58,44.15a1.75,1.75,0,0,0-1.22,1.61c-.22,6.64-.34,10.27-.58,17.1l-.21,0a.19.19,0,0,1,0,.07l.66-.14c21.83.6,30,20.61,30.22,40.71,0,5.57-.1,766-.14,1009.47l-58.59,20c0-210.15,0-1136.23,0-1146.79,1.65-6.27,6.81-20.93,14.2-39.4q8-21.51,21.59-26.06Q1231.8,102,1138.62,0l-3.42,12.49q29.58,28.43,29.56,71.6v25c-3,.11-6,.17-9.08.17-37.94,0-90.8-46.7-128.33-64.46-9.68,8.45-104.71,100.83-109.55,105.25q11.49-1.2,20.88,6.64t9.38,18.68q0,10.86-8.78,18.39c-3.5,3-7,5.81-10.38,8.45l-42.29-50.38H879q-16.17,28.22-70.57,46.23c-8.14,2.54-18,5.54-18.43,5.67Q783.38,206,769.62,206c-2.54,0-56.79-14.74-75.79-46.35l-43.19,47.23c-11.77-12.2-25-26-40.09-38.87l-24.88,4.06c-41.16,2.29-78.62,30.4-102.72,54a72.5,72.5,0,0,0,2.46-18.27C485.41,141.75,409.82,55,352.2,55q-24.26,0-41.72,19.51A66.21,66.21,0,0,0,293,120q0,16.23,12.14,31.69T331,167.15c49.29,0,40.3-40.23,39.45-43.86-1-4.35-1.53-7.6-1.53-16.26,0-7.59,4-9.58,10.61-9.76,25.28,6.49,74.91,64.59,74.91,97.2,0,63-154.71,163.13-168.82,168.58,0,.07-.07.13-.09.2V84.09q0-43.17,29.55-71.6L311.61,0q-93.2,102-140.9,116.71,13.62,4.52,21.59,26.06c7.56,18.89,12.64,33.4,14.17,39.44l.05,481.08h-.28c0,105.91.47,590.79.32,666.44L148,1310s-.17-834.61-.17-1010.4c.19-20.1,8.39-40.11,30.22-40.71l.66.14a.64.64,0,0,1,0-.07l-.21,0c-.23-6.84-.35-10.47-.57-17.1a1.76,1.76,0,0,0-1.22-1.61c-23.2-7.46-43.12-25.15-58-44.16a1.53,1.53,0,0,1-.19-.3c-3.87-7.56-6.33-12-10.16-19.34a1.76,1.76,0,0,0-3.06-.1c-4.28,7-7.75,11.3-10.33,13.1-12.21,9.54-32.82,6.72-46.06,2.71-19.56-5.92-34.23-24.72-35.53-45.83a1.17,1.17,0,0,0,0-.27,25.25,25.25,0,0,0-1.66-5.35,1.75,1.75,0,0,0-1.07-.87h0a1.74,1.74,0,0,0-2.05.87C2.79,151.7-.42,164,0,175.57,1,199.29,12.87,225,28.58,242.13c8.92,9.75,24.22,21.55,38.54,21.75A1.87,1.87,0,0,1,69,265.62V1356.34L391.29,1465l38.79,13.08L432,755.22l95.94,0c-22.52,18.4-50.51,41.35-50.51,41.35v697.47l78.9,26.61V1167.63q6.28,5.05,21.35,22.95l24.81-24.81q-10.89-9.09-22.39-26.64-13.7,12.64-23.72,23.45l.69-77.72q9.81,9.23,20,20.38,4.86-5.45,24.21-25.42-14.52-13.32-22.39-25.43-9.15,9.67-21.74,21.47S554.93,967,556.07,827c0-6.36-.12-44.26-.23-71.68h21a65.87,65.87,0,0,0-4.94,4.72q-15.75,16.66-15.74,36,0,26,23.6,36.92c27.44,12.51,34.29,18,35.2,24.66,1,7.06,0,68.24,0,68.24v418.92c0,15.34,1.89,115.92,0,122.68-.64,2.32-40.85-13.07-58.58-19.64v72.89l168.76,56.92,27.31-9.26v.05l78.91-26.61c0-.06,55.83-18.84,58.58-19.76h0l78.9-26.61c.16.13-.39-346.9-.7-530v-6.35c1.71-2.06,3.25-3.89,4.59-5.47,20.41,20.19,25.71,23.34,42.9,21.67v504.39L1094.5,1453v0l207.82-70.09v0l6.35-2.16,72.5-24.45h0v-.19l.06-74.23h0l.14-1016.44a1.88,1.88,0,0,1,1.84-1.74c14.32-.19,29.63-12,38.54-21.75,15.72-17.17,27.58-42.84,28.54-66.56C1450.71,163.83,1447.49,151.57,1441.77,140.52ZM1137.06,1238.57a60.51,60.51,0,0,1,1,11.51c0,4.48-1.54,10.58-3.84,10.55q-24-5.76-24-34.64c0-38.61,14.72-88.44,54.61-126.83v115.68a16.49,16.49,0,0,0-2.81-.25C1145,1214.59,1134.15,1223.84,1137.06,1238.57ZM592.94,676.78c40.34-5.39,74.66-38.57,103-82.85a271.19,271.19,0,0,0,30.49-66.8V632.4a57.93,57.93,0,0,1-5.7,24Q715,668.65,707.39,672a66.22,66.22,0,0,1-17.72,4.78ZM680.6,495.9c-5.63,43.28-20.83,79.78-33.32,92.82-26.65,27.81-35.42,44.57-65.32,44.57-25,0-33-11.83-55.88-37.85ZM515.79,582.13l-9-16.23c67.55-43.27,99.38-63.58,172.56-108.74v21.17Zm273.67,293.8-95.63,57.35V837.11c0-24.61,1-18,2.41-37.45,9.83,6.49,22.4,10.7,45.4,29.66Q778.56,860.19,789.46,875.93Zm61.81-199.15c-22.3-3.22-40.66-10.35-40.19-44.38q-.47-1.67-.47-14.5s-.62-63.58-1.19-162.23c.19-2.08,37.57-27.89,80.74-57.2,0,96.36,0,192.21,0,278.31Zm164.06-363.22c0,43.91.16,262.44.23,367.64a387.23,387.23,0,0,0-47.42-4.13l0-331.32C990,331,1007.6,319.07,1015.33,313.56ZM968.13,755.2h34c30.7,0,60.56,4.43,88.27,16.44,19,8.26,30.33,14.25,33.91,17.63,8,7.54,11.83,20.33-9.92,28.07-18.31,5.95-33.41,8.71-48,8.71-26.66-.38-63.13-10.07-98.28-26.62ZM1094.51,709l0-301.52q15.23.14,40,30.39l30.18-29.53,0,377.29c-4.07-13.54-12.23-25.52-14.91-28.6C1131.9,736.33,1113.72,720.69,1094.51,709Zm125.11-418.17v8.54s0-3.26,0-8.55Zm-54.86-138.42V388.16q-9.54-1.79-20.14-11.76-12.95-12.16-17.78-22.29c-6.34,6.62-19.73,21.15-32.29,35.05l0-94.44h0c-7.4-35.85-7.28-34.89-9.14-41.61,15.45-30,44.14-83.39,52.39-100.2C1149,153.17,1152.06,152.86,1164.76,152.39ZM970.15,194q19.07-16.34,19.07-44.79,0-7.26-9.08-17.25t-10.29-13l32.55-33s76.47,58.32,84.93,62.15h0c.32.22,15.51,8.25,10.21,19.86l-82,137.47-82-97.71Q955,207,970.15,194ZM861.2,215.53c1.12-1.67-2.28-1.42,26.55,32,30.07,34.91,53.33,53.68,56.17,56.52C881.74,347.47,832.43,384.38,809.39,401c-.42-74-.82-134.24-.9-162.18C814,237.22,856.09,223.09,861.2,215.53Zm-87.75,27.19s-1.66,390-1.83,434.06h-17c.16-44.23,1.61-434.15,1.61-434.15ZM676,203.19c16.69,13.85,38.25,35.29,50.35,38.41v82.48a234.14,234.14,0,0,0-21-51.21c-7.77-13.67-21.4-31.25-37.2-48.23-2.67-2.74-3.89-4-5.59-5.62,2.11-2.3,4-4.43,5.12-5.79Q672.71,207.09,676,203.19ZM574.52,230.54c1.05-13.16,6-16.69,9.54-19.76.85-.74,55.72,56.16,73.62,98.71,24.53,58.29,18.78,104.72,20.62,128.65L581.87,500c-4.91,0-7.35-1.29-7.35-12.58q1.05-196.86,1.05-232.15C575.57,237.84,574.84,232.24,574.52,230.54Zm-41.7,275.19c0,25.4,0,23.28-32.08,43.92-15.47-38.19-23.63-62-23.85-113.32-.27-67.13,2.94-137.18,55.93-190.39Zm-91.42-215c-7.23,22.07-13.24,49.65-17.07,77.2a274.32,274.32,0,0,1-45.85-31.52C402.85,323.3,424.26,307.58,441.4,290.78ZM423.86,371.4q-.92,6.9-1.64,13.75c-.89,6.59-.75,6.85-1.3,16.2-1.12,12.89-1.81,23.16-2,33.11-19.84-16.9-59.29-29.2-69.77-36.91C365.15,387.12,406,378.4,423.86,371.4Zm-138.38-5q39.16,8,55.78,31.12c-16.91,12.77-43,22.26-55.78,28.48Zm0,989.91s-.17-562.89-.18-680.15h.19V427.85c.65,0,1.36,0,2.14,0,12,0,57.58,27.95,61.18,44.49,1.59,14.53,2.39,25.12,2.39,28.75l1.8,20.28c.19,4.27.18,65.93.05,155.26-25.37-.9-47.36-5-67-12.28,0,7,14.75,19.69,29.93,36.2,9.87,10.74,17.27,20.48,24.94,26.86,4.05,3.27,8.06,6.23,12,8.92-.36,213.09-1.16,524.14-1.58,642.3C321.68,1368.59,285.52,1356.39,285.47,1356.34ZM432.63,525.72c2.11,9,4,16.35,5.41,20.58,7.36,20.7,14.35,38.37,26.7,55.74,27.85,39.16,62.53,69.56,104.07,74.74H432.22Zm80.66,906.52-3.51-609.08,12.1-9.08,3.52,622.65Zm84.59-610.18q-9.69,0-20.58-6.06-12.7-6.64-12.71-15.73t7.27-15.74a23.56,23.56,0,0,1,16.34-6.66q17.55,0,34.5,23.61L669.91,773q-6.06-3.63-9.08-4.24-11-8.76-17-13.47l77.29,0A106.22,106.22,0,0,0,703.51,764C655,795.22,630.57,822.06,597.88,822.06Zm69.91,136.19,52.06-30.87v82.92l-52.06,33.29Zm84.62,73.85v423.51c0,53.18-19.65,47.61-27.31,49-10.46-1.32-31.27,3.46-31.27-47.06V1036c45-28.24,45.26-28.54,52.95-33l5.63-2.73C754,1011.61,752.41,1023.23,752.41,1032.1Zm-6.53-36.33V913.45L792.48,882q21.79,27.24,30.27,68.4Zm85.44,472.85c-1.75-2.85,0-48.25,0-63.59v-48.69c0-16-3.24-381.77,0-386.21,4.14-12.52,45.43-47.28,44.7-84.87-.56-29-73-101.26-103-129.92,65.42,0,114.09,0,117.06-.14,0,144.89,0,247.09,0,249.43h0l0,67.81c-.05,2.25-.07,3.42-.07,3.42q-12.57-11.79-21.73-21.47-7.87,12.12-22.4,25.43,19.36,20,24.21,25.42,10.18-11.16,20-20.36l0,76.91q-9.79-10.49-23-22.66-11.51,17.56-22.4,26.64l24.82,24.81q14.18-16.83,20.55-22.29l-.11,281.28C874.1,1455.31,832.93,1471.25,831.32,1468.62Zm229.77-79.89-.51-414.19h12.11l.58,409.86Zm-65-484.81-28,38.56v-87.1c5.54,4.52,126.19,101.28,182.72,1.37,2.73-4.82,10.13-22.8,14-39.39V941.55l-11-42.32s-34.52,37-79.43,40.75C1049.74,942.05,1000.86,917.79,996.13,903.92Zm97.22,65.3c7.38.77,17.51,19.34,18.89,22.11,28.14,51.79,32.18,63,34.27,83.86-31.29,38.44-47.93,101.35-52,135.79V1031.07C1094.5,1028.91,1093.27,987.88,1093.35,969.22Zm1,410.85c0-43.18.12-129.68.15-130.67V1240c4.32,28.59,22.52,40.81,54.07,40.81a35,35,0,0,0,16.25-3.83v79Z"/></g></g></svg>